<svg xmlns="http://www.w3.org/2000/svg" xmlns:xlink="http://www.w3.org/1999/xlink" width="1440" height="1080" viewBox="0 0 381 285.75" xmlns:v="https://vecta.io/nano"><style><![CDATA[.B{opacity:.999}.C{fill-opacity:0}.D{font-size:16.933px}.E{font-family:monospace}]]></style><g fill="#fff" stroke="#00000b" stroke-width=".914" class="C"><path d="M133.24 42.791h33.895v7.023H133.24zm0 14.006h33.895v7.023H133.24zm0 15.459h33.895v7.023H133.24z" class="B"/><use xlink:href="#B" class="B"/><use xlink:href="#B" y="14.006" class="B"/><use xlink:href="#B" x="-13.461" y="-90.59" transform="rotate(24.827)" class="B"/><use xlink:href="#B" x="-47.682" y="166.028" transform="rotate(332.345)" class="B"/><g transform="rotate(90)"><use xlink:href="#C" class="B"/><use xlink:href="#C" y="15.753" class="B"/><use xlink:href="#C" y="31.292" class="B"/><use xlink:href="#C" y="47.072" class="B"/><use xlink:href="#C" y="62.568" class="B"/><use xlink:href="#C" y="127.776" class="B"/><use xlink:href="#C" y="78.561" class="B"/></g><use xlink:href="#B" x="-158.39" y="13.126" transform="rotate(24.827)" class="B"/><path d="M72.386 132.652h33.895v7.023H72.386zm0 19.811h33.895v7.023H72.386zm0 19.654h33.895v7.023H72.386zm0 19.126h33.895v7.023H72.386z" class="B"/><g transform="rotate(90)"><use xlink:href="#B" x="-62.06" y="-160.565" class="B"/><use xlink:href="#C" y="111.827" class="B"/><use xlink:href="#C" y="95.65" class="B"/><use xlink:href="#B" x="-62.06" y="-144.01" class="B"/><use xlink:href="#B" x="-62.06" y="-127.454" class="B"/><use xlink:href="#B" x="-62.06" y="-111.277" class="B"/><use xlink:href="#B" x="-62.06" y="-95.447" class="B"/><use xlink:href="#B" x="-62.06" y="-303.581" class="B"/><use xlink:href="#B" x="-62.06" y="-287.828" class="B"/><use xlink:href="#B" x="-62.06" y="-272.289" class="B"/><use xlink:href="#B" x="-62.06" y="-256.509" class="B"/><use xlink:href="#B" x="-62.06" y="-241.013" class="B"/><use xlink:href="#B" x="-62.06" y="-175.805" class="B"/><use xlink:href="#B" x="-62.06" y="-225.02" class="B"/><use xlink:href="#B" x="-62.06" y="-191.754" class="B"/><use xlink:href="#B" x="-62.06" y="-207.931" class="B"/></g><use xlink:href="#B" x="29.399" y="48.896" class="B"/><use xlink:href="#B" x="29.399" y="63.944" class="B"/><use xlink:href="#B" x="29.399" y="79.895" class="B"/><use xlink:href="#B" x="29.399" y="94.787" class="B"/><use xlink:href="#B" x="29.352" y="108.16" class="B"/><use xlink:href="#B" x="29.352" y="123.208" class="B"/><use xlink:href="#B" x="29.352" y="139.159" class="B"/><use xlink:href="#B" x="82.649" y="24.417" transform="rotate(22.341)" class="B"/><g transform="rotate(90)"><use xlink:href="#B" x="-62.06" y="-349.702" class="B"/><use xlink:href="#B" x="-62.06" y="-333.949" class="B"/><use xlink:href="#B" x="-62.06" y="-318.41" class="B"/></g></g><text y="37.423" x="115.31" xml:space="preserve" class="D E"><tspan y="37.423" x="115.31">Input 1</tspan></text><text y="37.418" x="253.761" xml:space="preserve" class="D E"><tspan y="37.418" x="253.761">Input 2</tspan></text><text transform="rotate(90)" y="-23.586" x="198.079" xml:space="preserve" class="D E"><tspan y="-23.586" x="198.079">Output</tspan></text><defs ><path id="B" d="M272.693 42.791h33.895v7.023h-33.895z"/><path id="C" d="M85.485-256.437h33.895v7.023H85.485z"/></defs></svg>