<svg xmlns="http://www.w3.org/2000/svg" width="1440" height="1080" viewBox="0 0 381 285.75" xmlns:v="https://vecta.io/nano"><style><![CDATA[.B{font-family:monospace}.C{opacity:.999}.D{fill:none}.E{stroke:#000}.F{stroke-linejoin:round}.G{stroke-width:1.559}.H{font-size:14.258px}.I{font-size:16.933px}.J{stroke-width:.723}.K{font-weight:400}.L{font-size:7.056px}.M{stroke-width:1.157}.N{stroke-width:1.162}.O{stroke-width:1.156}.P{stroke-width:1.118}.Q{font-size:10.224px}]]></style><g transform="matrix(1.394633 0 0 1.394633 -53.064379 -52.329299)"><path d="M53.476 114.33h20.767v13.464H53.476z" paint-order="fill markers stroke" class="C D E F P"/><text xml:space="preserve" x="60.729" y="123.216" class="B Q"><tspan x="60.729" y="123.216">a</tspan></text><path d="M53.476 140.788h20.767v13.464H53.476z" paint-order="fill markers stroke" class="C D E F P"/><text y="150.57" x="60.974" xml:space="preserve" class="B Q"><tspan y="150.57" x="60.974">b</tspan></text></g><g transform="matrix(1.394633 0 0 1.394633 -41.256482 -52.329299)"><circle cx="81.75" cy="134.042" r="3.607" paint-order="fill markers stroke" class="C D E F J"/><text xml:space="preserve" x="79.646" y="137.098" class="B I"><tspan x="79.646" y="137.098" font-weight="normal" class="L">*</tspan></text></g><g class="D E"><path d="M50.676 115.82l17.156 18.579" class="M"/><path d="M50.534 154.183l17.302-19.47" class="N"/><path d="M77.995 134.673h21.217" class="O"/><path d="M99.992 125.284h28.962v18.777H99.992z" paint-order="fill markers stroke" class="C F G"/></g><text xml:space="preserve" x="110.108" y="137.677" class="B H"><tspan x="110.108" y="137.677">x</tspan></text><g transform="matrix(1.394633 0 0 1.394633 25.413319 2.735714)"><path d="M53.476 114.33h20.767v13.464H53.476z" paint-order="fill markers stroke" class="C D E F P"/><text y="123.216" x="60.689" xml:space="preserve" class="B Q"><tspan y="123.216" x="60.689">c</tspan></text></g><g transform="matrix(1.394633 0 0 1.394633 36.901482 -33.648736)"><circle r="3.607" cy="134.042" cx="81.75" paint-order="fill markers stroke" class="C D E F J"/><text y="136.054" x="79.633" xml:space="preserve" class="B I"><tspan y="136.054" x="79.633" font-weight="normal" class="L">+</tspan></text></g><g class="D E"><path d="M128.834 134.501l17.156 18.579" class="M"/><path d="M128.692 172.863l17.302-19.47" class="N"/><path d="M156.153 153.354h21.217" class="O"/><path d="M178.15 143.965h28.962v18.777H178.15z" paint-order="fill markers stroke" class="C F G"/></g><text y="157.607" x="188.033" xml:space="preserve" class="B H"><tspan y="157.607" x="188.033">d</tspan></text><path d="M178.15 107.065h28.962v18.777H178.15z" paint-order="fill markers stroke" class="C D E F G"/><text y="120.927" x="188.614" xml:space="preserve" class="B H"><tspan y="120.927" x="188.614">2</tspan></text><g transform="matrix(1.394633 0 0 1.394633 115.04448 -52.473678)"><circle cx="81.75" cy="134.042" r="3.607" paint-order="fill markers stroke" class="C D E F J"/><text xml:space="preserve" x="79.646" y="137.098" class="B I"><tspan x="79.646" y="137.098" font-weight="normal" class="L">*</tspan></text></g><g class="D E"><path d="M206.977 115.676l17.156 18.579" class="M"/><path d="M206.835 154.038l17.302-19.47" class="N"/><path d="M234.296 134.529h21.217" class="O"/><path d="M256.293 125.718h28.962v18.777h-28.962z" paint-order="fill markers stroke" class="C F G"/></g><text xml:space="preserve" x="266.601" y="138.111" class="B H"><tspan x="266.601" y="138.111">e</tspan></text><path d="M256.293 162.469h28.962v18.777h-28.962z" paint-order="fill markers stroke" class="C D E F G"/><text xml:space="preserve" x="266.757" y="176.33" class="B H"><tspan x="266.757" y="176.33">2</tspan></text><g transform="matrix(1.394633 0 0 1.394633 193.03669 -34.249488)"><circle cx="81.75" cy="134.042" r="3.607" paint-order="fill markers stroke" class="C D E F J"/><text xml:space="preserve" x="79.633" y="136.054" class="B I"><tspan x="79.633" y="136.054" font-weight="normal" class="L">+</tspan></text></g><g class="D E"><path d="M284.969 133.9l17.156 18.579" class="M"/><path d="M284.827 172.262l17.302-19.47" class="N"/><path d="M312.289 152.753h21.217" class="O"/><path d="M334.286 143.942h28.962v18.777h-28.962z" paint-order="fill markers stroke" class="C F G"/></g><text y="157.7" x="344.14" xml:space="preserve" class="B H"><tspan y="157.7" x="344.14">f</tspan></text></svg>