<svg xmlns="http://www.w3.org/2000/svg" xmlns:xlink="http://www.w3.org/1999/xlink" viewBox="0 0 960 540" fill="none" stroke="none" stroke-linecap="square" stroke-miterlimit="10" xmlns:v="https://vecta.io/nano"><style><![CDATA[.B{fill-rule:evenodd}.C{fill-opacity:0}.D{stroke-linejoin:round}.E{stroke:#595959}.F{color-interpolation-filters:sRGB}.G{stroke-linecap:butt}]]></style><clipPath id="A"><path d="M0 0h960v540H0V0z"/></clipPath><g clip-path="url(#A)"><path fill="#000" d="M0 0h960v540H0z" class="B C"/><g filter="url(#B)"><use xlink:href="#F" x="11.326" y="-8.229"/></g><defs><filter id="B" filterUnits="userSpaceOnUse"><feGaussianBlur in="SourceAlpha" stdDeviation="5"/><feComponentTransfer class="F"><feFuncR type="linear" slope="0" intercept="0.0"/><feFuncG type="linear" slope="0" intercept="0.0"/><feFuncB type="linear" slope="0" intercept="0.0"/><feFuncA type="linear" slope="0.5" intercept="0"/></feComponentTransfer></filter><path id="C" d="M643.524 288.82L770.344 162h109.841v89.18L753.365 378H643.524zm0 0h109.841L880.185 162m-126.82 126.82V378"/><path id="D" d="M112.845 182.254h158.688v143.126H112.845z"/><path id="E" d="M97.228 194.803h158.688v143.126H97.228z"/></defs><g id="F"><g class="B"><path fill="#9fc5e8" d="M643.524 288.82h109.841V378H643.524z"/><path fill="#7f9db9" d="M753.365 288.82L880.185 162v89.18L753.365 378z"/><path fill="#b2d0ec" d="M643.524 288.82L770.344 162h109.841l-126.82 126.82z"/><use xlink:href="#C" fill="#000" class="C"/></g><use xlink:href="#C" stroke="#6fa8dc" class="D G"/></g><g filter="url(#G)"><use xlink:href="#H" x="9.119" y="-6.151"/></g><defs><filter id="G" filterUnits="userSpaceOnUse"><feGaussianBlur in="SourceAlpha" stdDeviation="2"/><feComponentTransfer class="F"><feFuncR type="linear" slope="0" intercept="0.0"/><feFuncG type="linear" slope="0" intercept="0.0"/><feFuncB type="linear" slope="0" intercept="0.0"/><feFuncA type="linear" slope="0.5" intercept="0"/></feComponentTransfer></filter></defs><g id="H"><use xlink:href="#D" fill="#6d9eeb" class="B"/><use xlink:href="#D" class="D E"/></g><use xlink:href="#E" fill="#93c47d" class="B"/><use xlink:href="#E" class="D E"/><path fill="#e06666" d="M79.813 213.32h158.688v143.126H79.813z" class="B"/><path d="M79.813 213.32h158.688v143.126H79.813z" class="D E"/><path fill="#000" d="M94.276 251.818h126.513v62.641H94.276z" class="B C"/><path fill="#fff" d="M137.449 278.503q0 .078-.047.141-.031.047-.125.078-.094.031-.25.047-.141.016-.375.016-.219 0-.375-.016-.141-.016-.234-.047-.094-.031-.141-.078-.031-.062-.031-.141v-11.312q0-.078.047-.125.047-.062.141-.094.094-.031.234-.047.156-.031.359-.031.234 0 .375.031.156.016.25.047.094.031.125.094.047.047.047.125v11.313zm15.122 0q0 .078-.047.141-.031.047-.125.078-.078.031-.219.047-.141.016-.359.016-.234 0-.391-.016-.141-.016-.234-.047-.078-.031-.109-.078-.031-.062-.031-.141v-4.969q0-.531-.094-.953-.094-.437-.297-.734-.203-.312-.516-.469-.297-.172-.719-.172-.516 0-1.047.406-.516.391-1.156 1.172v5.719q0 .078-.031.141-.031.047-.125.078-.078.031-.234.047-.141.016-.359.016-.203 0-.359-.016-.156-.016-.25-.047-.078-.031-.109-.078-.031-.062-.031-.141v-4.969q0-.531-.109-.953-.094-.437-.297-.734-.187-.312-.5-.469-.297-.172-.719-.172-.516 0-1.047.406-.531.391-1.156 1.172v5.719q0 .078-.031.141-.031.047-.125.078-.078.031-.219.047-.141.016-.375.016-.219 0-.375-.016-.141-.016-.234-.047-.078-.031-.109-.078-.031-.062-.031-.141v-8.187q0-.078.031-.125.031-.047.109-.094.078-.047.203-.047.141-.016.344-.016.203 0 .328.016.141 0 .203.047.078.047.109.094.031.047.031.125v1.078q.688-.766 1.344-1.125.656-.375 1.313-.375.516 0 .922.125.406.125.703.344.313.203.531.5.219.297.375.656.406-.437.766-.75.375-.312.719-.5.344-.187.656-.281.328-.094.656-.094.797 0 1.328.281.547.281.875.75.328.469.469 1.094.156.609.156 1.313v5.172zm8.903.016q0 .109-.078.172-.062.047-.187.063-.125.031-.375.031-.234 0-.375-.031-.141-.016-.203-.062-.062-.062-.062-.172v-.812q-.547.563-1.203.891-.656.313-1.391.313-.656 0-1.187-.172-.516-.156-.891-.469-.359-.328-.562-.797-.203-.469-.203-1.062 0-.687.281-1.187.281-.516.797-.844.531-.344 1.297-.516.766-.172 1.734-.172h1.125v-.641q0-.469-.109-.828-.094-.375-.328-.609-.219-.25-.578-.359-.344-.125-.859-.125-.562 0-1 .141-.437.125-.781.281-.328.156-.547.297-.219.125-.328.125-.078 0-.141-.031-.047-.047-.094-.109-.031-.078-.062-.187-.016-.125-.016-.25 0-.234.031-.359.031-.141.156-.25.125-.125.422-.281.313-.172.703-.297.391-.125.844-.219.469-.094.953-.094.875 0 1.484.203.625.203 1 .594.391.391.563.969.172.563.172 1.328v5.531zm-1.484-3.75h-1.281q-.625 0-1.078.109-.453.109-.766.313-.297.203-.437.5-.141.281-.141.656 0 .625.406 1.016.406.375 1.141.375.594 0 1.094-.297.5-.312 1.063-.922v-1.75zm11.108-4.078q0 .313-.094.453-.078.141-.219.141h-1.172q.313.328.438.734.125.391.125.813 0 .719-.234 1.266-.219.547-.641.922-.422.375-1.016.578-.578.203-1.281.203-.5 0-.953-.125-.453-.141-.703-.344-.156.156-.266.375-.109.203-.109.484 0 .313.297.531.297.203.797.219l2.141.094q.609.016 1.109.172.516.141.891.422.375.281.578.688.219.406.219.938 0 .563-.25 1.078-.234.516-.719.891-.484.391-1.25.609-.75.234-1.781.234-.984 0-1.687-.172-.687-.172-1.141-.469-.437-.281-.641-.687-.203-.406-.203-.875 0-.312.063-.594.078-.281.219-.531.156-.25.375-.484.234-.234.531-.469-.453-.219-.672-.562-.203-.359-.203-.75 0-.562.219-1 .234-.437.563-.781-.281-.328-.453-.75-.156-.437-.156-1.031 0-.703.234-1.25.25-.562.656-.937.422-.391 1.016-.594.594-.203 1.281-.203.375 0 .688.047.328.031.609.109h2.484q.156 0 .234.156.078.141.078.453zm-2.359 2.156q0-.844-.469-1.312-.453-.469-1.297-.469-.437 0-.766.156-.312.141-.531.391-.219.25-.328.594-.094.328-.094.688 0 .813.453 1.281.469.469 1.297.469.438 0 .766-.141.328-.141.547-.391.219-.25.313-.578.109-.328.109-.687zm.766 6.484q0-.516-.437-.797-.437-.297-1.172-.312l-2.125-.078q-.297.234-.484.438-.172.203-.281.391-.109.188-.156.359-.047.188-.047.375 0 .594.594.891.609.313 1.688.313.688 0 1.141-.141.469-.125.75-.344.281-.219.406-.5.125-.281.125-.594zm10.361-5.281q0 .359-.187.516-.172.141-.391.141h-5.375q0 .688.125 1.234.141.547.453.938.328.391.828.609.516.203 1.25.203.594 0 1.047-.094.453-.094.781-.203.344-.125.547-.219.219-.109.328-.109.063 0 .109.031.063.031.078.109.031.063.047.172.016.109.016.281 0 .109-.016.203 0 .078-.016.156-.016.063-.047.125-.031.047-.094.094-.047.047-.297.172-.234.109-.625.219-.391.109-.906.188-.516.094-1.094.094-1.016 0-1.781-.281-.766-.281-1.281-.828-.516-.562-.781-1.391-.266-.844-.266-1.969 0-1.047.266-1.891.281-.844.797-1.422.516-.594 1.234-.906.734-.328 1.641-.328.969 0 1.641.313.688.313 1.125.844.438.516.641 1.234.203.703.203 1.5v.266zm-1.516-.437q.031-1.187-.531-1.859-.547-.672-1.625-.672-.562 0-.984.219-.406.203-.687.547-.281.344-.437.813-.156.453-.172.953h4.438z"/><path fill="#000" d="M365.273 269.343h227.181" class="B C"/><g stroke="#d5a6bd" stroke-width="4"><path d="M365.273 269.343h203.181" class="D G"/><g class="B"><path fill="#d5a6bd" d="M568.454 275.95l18.152-6.607-18.152-6.607z"/></g></g><g fill="#000"><path d="M359.182 196.008h236.661v61.039H359.182z" class="B C"/><path d="M448.229 219.428l1.719-.141q.188 1.25.875 1.891.703.625 1.688.625 1.188 0 2-.891.828-.891.828-2.359 0-1.406-.797-2.219-.781-.812-2.062-.812-.781 0-1.422.359-.641.359-1 .938l-1.547-.203 1.297-6.859h6.641v1.563h-5.328l-.719 3.594q1.203-.844 2.516-.844 1.75 0 2.953 1.219 1.203 1.203 1.203 3.109 0 1.813-1.047 3.141-1.297 1.625-3.516 1.625-1.812 0-2.969-1.016-1.156-1.031-1.312-2.719zm16.403 3.5v-8.406h-1.453v-1.266h1.453v-1.031q0-.969.172-1.453.234-.641.828-1.031.594-.391 1.672-.391.688 0 1.531.156l-.25 1.438q-.5-.094-.953-.094-.75 0-1.062.328-.312.313-.312 1.188v.891h1.891v1.266h-1.891v8.406h-1.625zm4.793-11.469v-1.891h1.641v1.891h-1.641zm0 11.469v-9.672h1.641v9.672h-1.641zm4.098 0v-13.359h1.641v13.359h-1.641zm7.77-1.469l.234 1.453q-.687.141-1.234.141-.891 0-1.391-.281-.484-.281-.687-.734-.203-.469-.203-1.937v-5.578h-1.203v-1.266h1.203v-2.391l1.625-.984v3.375h1.656v1.266h-1.656v5.672q0 .688.078.891.094.203.281.328.203.109.578.109.266 0 .719-.062zm8.23-1.641l1.688.203q-.406 1.484-1.484 2.313-1.078.813-2.766.813-2.125 0-3.375-1.297-1.234-1.312-1.234-3.672 0-2.453 1.25-3.797 1.266-1.344 3.266-1.344 1.938 0 3.156 1.328 1.234 1.313 1.234 3.703 0 .156 0 .438h-7.219q.094 1.594.906 2.453.813.844 2.016.844.906 0 1.547-.469.641-.484 1.016-1.516zm-5.391-2.656h5.406q-.109-1.219-.625-1.828-.781-.953-2.031-.953-1.125 0-1.906.766-.766.75-.844 2.016zm9.126 5.766v-9.672h1.469v1.469q.563-1.031 1.031-1.359.484-.328 1.063-.328.828 0 1.688.531l-.562 1.516q-.609-.359-1.203-.359-.547 0-.969.328-.422.328-.609.891-.281.875-.281 1.922v5.063h-1.625zm5.572-2.891l1.625-.25q.125.969.75 1.5.625.516 1.75.516 1.125 0 1.672-.453.547-.469.547-1.094 0-.547-.484-.875-.328-.219-1.672-.547-1.812-.469-2.516-.797-.687-.328-1.047-.906-.359-.594-.359-1.312 0-.641.297-1.187.297-.562.813-.922.375-.281 1.031-.469.672-.203 1.422-.203 1.141 0 2 .328.859.328 1.266.891.422.563.578 1.5l-1.609.219q-.109-.75-.641-1.172-.516-.422-1.469-.422-1.141 0-1.625.375-.469.375-.469.875 0 .313.188.578.203.266.641.438.234.094 1.438.422 1.75.453 2.438.75.688.297 1.078.859.391.563.391 1.406 0 .828-.484 1.547-.469.719-1.375 1.125-.906.391-2.047.391-1.875 0-2.875-.781-.984-.781-1.25-2.328z"/><path d="M568.803 378h245.732v42.016H568.803z" class="B C"/><path d="M662.317 398.857q0 1.531-.391 2.672-.391 1.141-1.141 1.891-.75.75-1.844 1.125-1.094.375-2.609.375h-2.484q-.219 0-.406-.141-.187-.141-.187-.5v-10.516q0-.344.188-.484.188-.141.406-.141h2.656q1.531 0 2.594.391 1.063.391 1.766 1.141.719.734 1.078 1.797.375 1.063.375 2.391zm-1.641.063q0-.953-.234-1.781-.234-.828-.75-1.422-.5-.609-1.281-.937-.766-.344-1.984-.344h-1.594v9.172h1.609q1.125 0 1.891-.281.781-.281 1.297-.859.531-.594.781-1.469.266-.875.266-2.078zm10.884 1.313q0 .359-.187.516-.172.141-.391.141h-5.375q0 .688.125 1.234.141.547.453.938.328.391.828.609.516.203 1.25.203.594 0 1.047-.094.453-.094.781-.203.344-.125.547-.219.219-.109.328-.109.063 0 .109.031.063.031.078.109.031.063.047.172.016.109.016.281 0 .109-.016.203 0 .078-.016.156-.016.063-.047.125-.031.047-.094.094-.047.047-.297.172-.234.109-.625.219-.391.109-.906.188-.516.094-1.094.094-1.016 0-1.781-.281-.766-.281-1.281-.828-.516-.562-.781-1.391-.266-.844-.266-1.969 0-1.047.266-1.891.281-.844.797-1.422.516-.594 1.234-.906.734-.328 1.641-.328.969 0 1.641.313.688.313 1.125.844.438.516.641 1.234.203.703.203 1.5v.266zm-1.516-.437q.031-1.187-.531-1.859-.547-.672-1.625-.672-.562 0-.984.219-.406.203-.687.547-.281.344-.437.813-.156.453-.172.953h4.438zm11.345.672q0 1.078-.234 1.938-.234.844-.687 1.453-.453.594-1.125.922-.656.313-1.5.313-.375 0-.687-.078-.297-.062-.594-.219-.297-.156-.594-.391-.297-.234-.625-.562v4.109q0 .063-.031.109-.031.063-.125.094-.078.047-.219.063-.141.016-.375.016-.219 0-.375-.016-.141-.016-.234-.062-.078-.031-.109-.094-.031-.047-.031-.109v-11.453q0-.094.031-.141.031-.047.109-.078.078-.047.203-.047.141-.016.313-.016.188 0 .313.016.125 0 .203.047.094.031.125.078.031.047.031.141v1.094q.375-.375.719-.656.344-.281.688-.469.359-.187.719-.281.375-.109.781-.109.891 0 1.516.359.641.344 1.031.953.406.594.578 1.391.188.797.188 1.688zm-1.594.172q0-.625-.094-1.203-.094-.594-.328-1.047-.219-.469-.625-.734-.391-.281-.969-.281-.297 0-.578.094-.281.078-.578.266-.281.188-.609.5-.312.297-.672.75v3.266q.625.75 1.172 1.156.563.391 1.172.391.563 0 .969-.266.406-.281.656-.734.25-.453.359-1.016.125-.562.125-1.141zm8.032 3.453q0 .266-.047.422-.031.156-.109.234-.062.063-.219.125-.141.063-.328.094-.187.047-.391.078-.203.031-.422.031-.641 0-1.094-.172-.453-.172-.75-.5-.281-.344-.422-.859-.125-.531-.125-1.25v-4.797h-1.156q-.125 0-.219-.141-.078-.141-.078-.469 0-.172.016-.281.031-.125.063-.203.047-.078.094-.109.063-.031.141-.031h1.141v-1.953q0-.062.031-.109.031-.062.109-.109.094-.047.234-.062.156-.016.375-.016.219 0 .359.016.156.016.234.063.078.047.109.109.047.047.047.109v1.953h2.109q.063 0 .109.031.063.031.109.109.047.078.063.203.016.109.016.281 0 .328-.078.469-.078.141-.219.141h-2.109v4.578q0 .844.25 1.281.25.438.906.438.203 0 .359-.047.172-.047.297-.078.125-.047.219-.094.094-.047.172-.047.047 0 .078.031.047.016.063.078.031.063.047.172.016.109.016.281zm9.046.594q0 .078-.047.141-.031.047-.109.078-.078.031-.234.047-.141.016-.359.016-.219 0-.375-.016-.141-.016-.234-.047-.078-.031-.109-.078-.031-.062-.031-.141v-4.797q0-.703-.109-1.125-.109-.437-.328-.734-.203-.312-.547-.469-.328-.172-.766-.172-.562 0-1.125.406-.562.391-1.187 1.172v5.719q0 .078-.031.141-.031.047-.125.078-.078.031-.219.047-.141.016-.375.016-.219 0-.375-.016-.141-.016-.234-.047-.078-.031-.109-.078-.031-.062-.031-.141v-12.156q0-.078.031-.125.031-.062.109-.094.094-.047.234-.062.156-.016.375-.016.234 0 .375.016.141.016.219.063.094.031.125.094.031.047.031.125v4.906q.656-.687 1.313-1.016.656-.344 1.313-.344.828 0 1.375.281.563.281.906.75.359.469.5 1.094.156.609.156 1.5v4.984zm14.582-4.187q0 1-.266 1.844-.266.844-.797 1.453-.516.609-1.312.953-.781.344-1.812.344-1.016 0-1.766-.297-.75-.297-1.25-.875-.5-.578-.75-1.391-.25-.828-.25-1.859 0-1 .266-1.844.266-.844.781-1.453.531-.609 1.313-.953.781-.344 1.828-.344 1.016 0 1.766.313.75.297 1.25.875.5.563.75 1.391.25.813.25 1.844zm-1.578.109q0-.672-.125-1.266-.125-.594-.406-1.031-.281-.453-.766-.703-.484-.266-1.203-.266-.672 0-1.156.234-.469.234-.781.672-.297.438-.453 1.031-.156.578-.156 1.281 0 .672.125 1.266.125.594.406 1.047.297.438.781.703.484.25 1.203.25.656 0 1.125-.234.484-.234.797-.656.313-.437.453-1.031.156-.594.156-1.297zm8.291-7.484q0 .172-.031.281-.016.094-.047.172-.016.063-.047.094-.031.016-.094.016-.062 0-.156-.047-.094-.047-.234-.094-.141-.047-.328-.078-.187-.047-.422-.047-.344 0-.578.109-.234.109-.391.344-.141.219-.203.594-.062.375-.062.891v.906h1.828q.078 0 .125.031.047.031.094.109.047.078.063.203.016.109.016.281 0 .328-.078.469-.078.141-.219.141h-1.828v7.188q0 .078-.047.141-.031.047-.125.078-.078.031-.219.047-.141.016-.359.016-.219 0-.375-.016-.141-.016-.234-.047-.078-.031-.125-.078-.031-.062-.031-.141v-7.187h-1.156q-.141 0-.219-.141-.062-.141-.062-.469 0-.172.016-.281.016-.125.047-.203.047-.078.094-.109.063-.031.125-.031h1.156v-.859q0-.844.156-1.453.172-.625.5-1.016.328-.391.813-.578.5-.187 1.172-.187.328 0 .625.063.297.047.453.125.172.063.219.125.063.047.094.141.047.078.063.203.016.125.016.297zm12.38 8q0 .953-.328 1.703-.312.734-.891 1.234-.578.5-1.391.766-.797.266-1.781.266-.547 0-1.047-.078-.484-.078-.875-.187-.375-.109-.625-.219-.25-.109-.328-.172-.062-.078-.094-.125-.016-.062-.047-.125-.016-.078-.031-.203 0-.125 0-.281 0-.156.016-.281.016-.125.047-.203.031-.078.078-.109.063-.031.125-.031.094 0 .281.109.188.109.516.25.328.125.797.25.484.109 1.141.109.609 0 1.109-.141.516-.141.875-.453.375-.312.578-.781.219-.469.219-1.141 0-.562-.187-1-.172-.437-.547-.719-.359-.281-.922-.422-.562-.156-1.344-.156-.562 0-.969.063-.391.047-.734.047-.266 0-.375-.109-.109-.125-.109-.453v-4.812q0-.297.141-.437.141-.141.406-.141h5.219q.078 0 .141.047.078.031.125.109.047.078.063.219.031.125.031.297 0 .328-.094.516-.094.172-.266.172h-4.391v3.313q.313-.047.641-.047.344-.016.781-.016 1 0 1.75.234.766.234 1.266.688.516.438.766 1.063.266.625.266 1.391z"/></g></g></svg>