<svg xmlns="http://www.w3.org/2000/svg" xmlns:xlink="http://www.w3.org/1999/xlink" width="1440" height="1080" viewBox="0 0 381 285.75" xmlns:v="https://vecta.io/nano"><style><![CDATA[.B{font-family:monospace}.C{opacity:.999}.D{font-weight:400}.E{font-size:7.056px}.F{font-size:16.933px}.G{stroke:#000}.H{stroke-width:2.646}.I{stroke-width:.265}.J{stroke-width:2.117}]]></style><g transform="matrix(1.064158 0 0 1.064158 -12.452195 -8.634084)"><text xml:space="preserve" x="164.798" y="86.557" class="B F"><tspan x="164.798" y="86.557">Sorted Edges:</tspan><tspan x="164.798" y="107.723">2 4 2</tspan><tspan x="164.798" y="128.89">1 2 3</tspan><tspan x="164.798" y="150.056">4 5 4</tspan><tspan x="164.798" y="171.223">2 3 5</tspan><tspan x="164.798" y="192.39">1 5 7</tspan><tspan x="164.798" y="213.556">3 4 8</tspan></text><g transform="matrix(.643464 0 0 .643464 -69.814544 56.890683)"><circle r="13.229" cy="110.508" cx="213.824" fill="#fff" class="C G H"/><text y="86.901" x="144.602" xml:space="preserve" class="B F"><tspan y="115.766" x="208.747">1</tspan></text><circle cx="151.207" cy="145.039" r="13.229" fill="#fff" class="C G H"/><text y="108.122" x="265.104" xml:space="preserve" class="B F"><tspan y="150.351" x="146.436">2</tspan></text><circle cx="174.37" cy="211.884" r="13.229" fill="#fff" class="C G H"/><text y="142.772" x="239.885" xml:space="preserve" class="B F"><tspan y="217.073" x="169.326">3</tspan></text><circle cx="240.121" cy="171.061" r="13.229" fill="#fff" class="C G H"/><text y="154.867" x="187.063" xml:space="preserve" class="B F"><tspan y="176.249" x="235.172">4</tspan></text><circle cx="286.425" cy="115.729" r="13.229" fill="#fff" class="C G H"/><text y="196.698" x="161.64" xml:space="preserve" class="B F"><tspan y="120.793" x="281.377">5</tspan></text><g class="G"><g fill="none"><path d="M226.349 111.333l46.294 4.247m4.649 10.972l-29.132 33.542" class="J"/><path d="M163.836 137.911z" class="I"/><path d="M201.788 118.668l-37.952 19.243m-10.156 20.045l15.502 41.427m62.541-17.105L187.356 206.6" class="J"/></g><path d="M164.905 149.404l63.076 16.036" class="J"/></g></g><text y="114.592" x="163.168" xml:space="preserve" class="B E"><tspan y="137.271" x="44.631" font-weight="normal">3</tspan></text><text xml:space="preserve" x="147.302" y="155.441" class="B E"><tspan x="28.765" y="178.12" font-weight="normal">5</tspan></text><text xml:space="preserve" x="175.9" y="131.52" class="B E"><tspan x="57.363" y="154.199" font-weight="normal">2</tspan></text><text xml:space="preserve" x="184.854" y="165.731" class="B E"><tspan x="66.317" y="188.41" font-weight="normal">8</tspan></text><text xml:space="preserve" x="208.373" y="105.461" class="B E"><tspan x="89.836" y="128.14" font-weight="normal">7</tspan></text><text xml:space="preserve" x="219.599" y="131.788" class="B E"><tspan x="101.062" y="154.467" font-weight="normal">4</tspan></text><g fill="#00c800" stroke="#00c800" class="I"><use xlink:href="#B" class="C"/><use xlink:href="#B" y="21.181" class="C"/><use xlink:href="#B" y="42.274" class="C"/><use xlink:href="#B" y="63.933" class="C"/></g><g fill="red" stroke="red" class="I"><use xlink:href="#B" y="85.315" class="C"/><use xlink:href="#B" y="106.173" class="C"/></g><text xml:space="preserve" x="267.04" y="195.414" class="B E"><tspan x="267.04" y="195.414" font-weight="normal">Graph already connected</tspan><tspan x="267.04" y="204.233" font-weight="normal"> without these edges</tspan></text></g><defs ><path id="B" d="M246.573 95.421h13.229v13.229h-13.229z"/></defs></svg>