<svg xmlns="http://www.w3.org/2000/svg" viewBox="0 0 381 285.75" height="1080" width="1440"><defs><filter id="a" x="0" width="1" y="0" height="1" color-interpolation-filters="sRGB"><feGaussianBlur/></filter></defs><g filter="url(#a)"><path d="M114.715 155.15h32.802M172.923 155.15h32.803M231.131 155.15h32.803" fill="none" stroke="#ffc145" stroke-width="1.058"/><path d="M114.715 155.15a12.703 12.703 0 01-12.703 12.702 12.703 12.703 0 01-12.703-12.702 12.703 12.703 0 0112.703-12.703 12.703 12.703 0 0112.703 12.703" opacity=".997"/><path d="M102.359 149.89v9.824h2.381q.248 0 .356.099.107.09.107.248 0 .149-.107.248-.108.099-.356.099h-5.457q-.248 0-.355-.1-.108-.098-.108-.247 0-.157.108-.248.107-.1.355-.1h2.382v-8.863l-2.266.711q-.165.05-.24.05-.124 0-.231-.1-.1-.107-.1-.248 0-.124.083-.231.066-.066.273-.14z" aria-label="1" font-size="16.933" font-family="monospace" fill="#fff" stroke="#fff" stroke-width=".265"/><path d="M172.923 155.15a12.703 12.703 0 01-12.703 12.702 12.703 12.703 0 01-12.703-12.702 12.703 12.703 0 0112.703-12.703 12.703 12.703 0 0112.703 12.703M231.131 155.15a12.703 12.703 0 01-12.702 12.702 12.703 12.703 0 01-12.703-12.702 12.703 12.703 0 0112.703-12.703 12.703 12.703 0 0112.702 12.703M289.34 155.15a12.703 12.703 0 01-12.703 12.702 12.703 12.703 0 01-12.703-12.702 12.703 12.703 0 0112.703-12.703 12.703 12.703 0 0112.703 12.703" opacity=".997"/><path d="M157.541 159.767h5.333v-.273q0-.248.1-.355.099-.108.256-.108.149 0 .248.108.099.107.099.355v.968h-6.714v-1.025q2.117-1.902 4.118-3.87.934-.918 1.281-1.348.348-.43.472-.752.132-.33.132-.662 0-.893-.72-1.579-.719-.686-1.736-.686-.91 0-1.612.52-.703.522-.91 1.29-.05.2-.124.257-.099.083-.231.083-.14 0-.24-.091-.09-.1-.09-.232 0-.397.43-1.075.437-.678 1.198-1.066.769-.389 1.571-.389 1.298 0 2.232.901.935.902.935 2.043 0 .48-.157.884-.158.397-.538.877-.372.471-1.348 1.43-2.447 2.415-3.985 3.746z" aria-label="2" font-size="16.933" font-family="monospace" fill="#fff" stroke-width=".265"/><path d="M219.892 154.69q.96.43 1.463 1.183.505.744.505 1.554 0 1.249-1.017 2.208-1.009.95-2.53.95-.893 0-1.852-.38-.96-.38-1.34-.777-.124-.132-.124-.28 0-.133.091-.232.1-.1.232-.1t.297.124q1.282.951 2.712.951 1.207 0 2.018-.752.818-.76.818-1.687 0-.62-.405-1.215-.397-.596-1.15-.935-.752-.347-1.52-.347-.249 0-.356-.09-.107-.1-.107-.257 0-.149.099-.248.107-.1.314-.1l.595.009q.935 0 1.538-.57.612-.571.612-1.324 0-.777-.637-1.372-.636-.596-1.662-.596-.719 0-1.323.249-.603.248-.967.678-.132.165-.207.206-.066.033-.157.033-.14 0-.24-.09-.099-.1-.099-.232 0-.33.72-.835 1-.703 2.273-.703 1.315 0 2.158.794.844.785.844 1.877 0 .694-.405 1.314-.406.62-1.191.992z" aria-label="3" font-size="16.933" font-family="monospace" fill="#fff" stroke-width=".265"/><path d="M278.063 157.436h-4.605v-.802l3.86-6.673h1.448v6.78h.579q.256 0 .363.1.108.09.108.247 0 .15-.108.248-.107.1-.363.1h-.58v2.207h.58q.256 0 .363.1.108.09.108.247 0 .15-.108.249-.107.099-.363.099h-2.58q-.256 0-.364-.1-.107-.099-.107-.248 0-.157.107-.248.108-.099.364-.099h1.298zm0-.695v-6.077h-.364l-3.514 6.077z" aria-label="4" font-size="16.933" font-family="monospace" fill="#fff" stroke-width=".265"/><g style="line-height:1.25;-inkscape-font-specification:'monospace, Normal';font-variant-ligatures:normal;font-variant-caps:normal;font-variant-numeric:normal;font-variant-east-asian:normal" aria-label="next" font-weight="400" font-size="7.056" font-family="monospace" stroke-width=".265"><path style="-inkscape-font-specification:'monospace, Normal';font-variant-ligatures:normal;font-variant-caps:normal;font-variant-numeric:normal;font-variant-east-asian:normal" d="M123.9 147.29v.438q.303-.307.548-.424.245-.117.551-.117.33 0 .603.14.193.104.348.345.159.238.159.49v1.822h.244q.103 0 .148.041.045.038.045.104 0 .062-.045.103-.045.041-.148.041h-.775q-.107 0-.152-.04-.044-.042-.044-.104 0-.066.044-.104.045-.04.152-.04h.241v-1.775q0-.307-.224-.517-.224-.214-.6-.214-.285 0-.495.118-.21.113-.6.571v1.816h.327q.104 0 .149.041.044.038.044.104 0 .062-.044.103-.045.041-.149.041h-.943q-.104 0-.149-.04-.044-.042-.044-.104 0-.066.044-.104.045-.04.149-.04h.327v-2.402h-.245q-.103 0-.148-.041-.045-.042-.045-.107 0-.062.045-.104.045-.04.148-.04zM130.632 148.85h-2.95q.077.562.47.907.396.34.978.34.324 0 .679-.106.354-.107.578-.283.066-.051.114-.051.055 0 .097.045.04.04.04.1 0 .058-.054.113-.166.172-.59.324-.42.148-.864.148-.744 0-1.244-.486-.496-.489-.496-1.181 0-.63.465-1.082.469-.451 1.158-.451.71 0 1.168.465.458.461.451 1.199zm-.293-.292q-.086-.48-.455-.779-.365-.3-.871-.3-.507 0-.872.297-.365.296-.455.782zM133.495 148.713l1.326 1.271q.131 0 .166.014.034.01.058.048.028.038.028.083 0 .062-.045.103-.045.041-.152.041h-.93q-.107 0-.151-.04-.045-.042-.045-.104 0-.066.045-.104.044-.04.151-.04h.479l-1.127-1.08-1.12 1.08h.483q.103 0 .148.04.045.038.045.104 0 .062-.045.103-.045.041-.148.041h-.94q-.104 0-.149-.04-.044-.042-.044-.104 0-.045.024-.083.027-.038.058-.048.035-.014.166-.014l1.326-1.271-1.178-1.13q-.124 0-.159-.014-.03-.014-.058-.052-.024-.038-.024-.082 0-.062.045-.104.044-.041.151-.041h.789q.107 0 .148.041.045.042.045.107 0 .062-.045.103-.041.042-.148.042h-.344l.974.94.982-.94h-.344q-.104 0-.152-.042-.045-.04-.045-.106 0-.062.045-.104.045-.041.152-.041h.789q.103 0 .148.041.045.042.045.107 0 .041-.028.08-.024.037-.059.051-.03.014-.155.014zM136.933 147.29h1.571q.103 0 .148.041.045.042.045.107 0 .062-.045.103-.045.042-.148.042h-1.571v1.926q0 .251.2.42.203.169.592.169.293 0 .634-.086.341-.09.53-.2.07-.045.115-.045.055 0 .096.045.041.041.041.1 0 .051-.044.096-.11.114-.538.248-.424.131-.813.131-.506 0-.806-.238-.3-.237-.3-.64v-1.926h-.534q-.103 0-.148-.041-.045-.042-.045-.107 0-.062.045-.104.045-.04.148-.04h.534v-.855q0-.104.041-.148.042-.045.104-.045.065 0 .107.045.04.044.04.148z"/></g><g style="line-height:1.25;-inkscape-font-specification:'monospace, Normal';font-variant-ligatures:normal;font-variant-caps:normal;font-variant-numeric:normal;font-variant-east-asian:normal" transform="matrix(.26458 0 0 .26458 181.299 146.243)" aria-label="next" font-weight="400" font-size="26.667" font-family="monospace" filter="url(#a)"><path style="-inkscape-font-specification:'monospace, Normal';font-variant-ligatures:normal;font-variant-caps:normal;font-variant-numeric:normal;font-variant-east-asian:normal" d="M3.06 3.958v1.654Q4.206 4.453 5.13 4.01q.925-.442 2.084-.442 1.25 0 2.278.534.73.39 1.315 1.302.6.898.6 1.849v6.888h.924q.39 0 .56.156.169.143.169.39 0 .235-.17.391-.169.156-.56.156H9.402q-.404 0-.573-.156-.17-.156-.17-.39 0-.248.17-.391.17-.156.573-.156h.912V7.435q0-1.159-.847-1.953-.846-.808-2.265-.808-1.081 0-1.875.443-.795.43-2.266 2.162v6.862h1.237q.39 0 .56.156.169.143.169.39 0 .235-.17.391-.168.156-.56.156H.73q-.39 0-.56-.156Q0 14.922 0 14.688q0-.248.17-.391.169-.156.56-.156h1.236V5.065h-.924q-.391 0-.56-.156-.17-.156-.17-.404 0-.234.17-.39.169-.157.56-.157zM28.503 9.857H17.357q.286 2.122 1.77 3.424 1.498 1.29 3.699 1.29 1.224 0 2.565-.404 1.34-.404 2.187-1.068.248-.195.43-.195.208 0 .364.169.157.156.157.378 0 .22-.209.43-.625.65-2.226 1.223-1.589.56-3.268.56-2.813 0-4.701-1.836-1.875-1.849-1.875-4.466 0-2.383 1.758-4.089 1.77-1.705 4.375-1.705 2.682 0 4.414 1.758 1.732 1.744 1.706 4.53zM27.396 8.75q-.326-1.81-1.719-2.943-1.38-1.133-3.294-1.133-1.914 0-3.294 1.12-1.38 1.12-1.72 2.956zM39.323 9.336l5.013 4.805q.495 0 .625.052.13.039.221.182.105.143.105.313 0 .234-.17.39-.169.156-.573.156H41.03q-.404 0-.573-.156-.17-.156-.17-.39 0-.248.17-.391.17-.156.573-.156h1.81l-4.258-4.076-4.232 4.076h1.823q.39 0 .56.156.17.143.17.39 0 .235-.17.391-.17.156-.56.156h-3.555q-.39 0-.56-.156-.169-.156-.169-.39 0-.17.091-.313.104-.143.222-.182.13-.052.625-.052l5.013-4.805-4.454-4.27q-.468 0-.598-.053-.118-.052-.222-.195-.091-.144-.091-.313 0-.234.17-.39.169-.157.572-.157h2.982q.404 0 .56.157.17.156.17.403 0 .235-.17.39-.156.157-.56.157h-1.302L38.58 8.62l3.71-3.555H40.99q-.391 0-.573-.156-.17-.156-.17-.404 0-.234.17-.39.169-.157.573-.157h2.981q.391 0 .56.157.17.156.17.403 0 .156-.105.3-.09.143-.22.195-.118.052-.587.052zM52.318 3.958h5.937q.39 0 .56.157.17.156.17.403 0 .235-.17.39-.17.157-.56.157h-5.937v7.279q0 .95.755 1.588.768.638 2.24.638 1.106 0 2.395-.325 1.29-.339 2.006-.755.26-.17.43-.17.208 0 .364.17.156.156.156.377 0 .196-.17.365-.416.43-2.03.937-1.602.495-3.073.495-1.914 0-3.047-.898-1.133-.899-1.133-2.422V5.065h-2.018q-.39 0-.56-.156-.17-.156-.17-.404 0-.234.17-.39.17-.157.56-.157h2.018V.73q0-.39.156-.56.157-.169.39-.169.248 0 .405.17.156.169.156.56z"/></g><g style="line-height:1.25;-inkscape-font-specification:'monospace, Normal';font-variant-ligatures:normal;font-variant-caps:normal;font-variant-numeric:normal;font-variant-east-asian:normal" transform="matrix(.26458 0 0 .26458 239.507 146.243)" aria-label="next" font-weight="400" font-size="26.667" font-family="monospace" filter="url(#a)"><path style="-inkscape-font-specification:'monospace, Normal';font-variant-ligatures:normal;font-variant-caps:normal;font-variant-numeric:normal;font-variant-east-asian:normal" d="M3.06 3.958v1.654Q4.206 4.453 5.13 4.01q.925-.442 2.084-.442 1.25 0 2.278.534.73.39 1.315 1.302.6.898.6 1.849v6.888h.924q.39 0 .56.156.169.143.169.39 0 .235-.17.391-.169.156-.56.156H9.402q-.404 0-.573-.156-.17-.156-.17-.39 0-.248.17-.391.17-.156.573-.156h.912V7.435q0-1.159-.847-1.953-.846-.808-2.265-.808-1.081 0-1.875.443-.795.43-2.266 2.162v6.862h1.237q.39 0 .56.156.169.143.169.39 0 .235-.17.391-.168.156-.56.156H.73q-.39 0-.56-.156Q0 14.922 0 14.688q0-.248.17-.391.169-.156.56-.156h1.236V5.065h-.924q-.391 0-.56-.156-.17-.156-.17-.404 0-.234.17-.39.169-.157.56-.157zM28.503 9.857H17.357q.286 2.122 1.77 3.424 1.498 1.29 3.699 1.29 1.224 0 2.565-.404 1.34-.404 2.187-1.068.248-.195.43-.195.208 0 .364.169.157.156.157.378 0 .22-.209.43-.625.65-2.226 1.223-1.589.56-3.268.56-2.813 0-4.701-1.836-1.875-1.849-1.875-4.466 0-2.383 1.758-4.089 1.77-1.705 4.375-1.705 2.682 0 4.414 1.758 1.732 1.744 1.706 4.53zM27.396 8.75q-.326-1.81-1.719-2.943-1.38-1.133-3.294-1.133-1.914 0-3.294 1.12-1.38 1.12-1.72 2.956zM39.323 9.336l5.013 4.805q.495 0 .625.052.13.039.221.182.105.143.105.313 0 .234-.17.39-.169.156-.573.156H41.03q-.404 0-.573-.156-.17-.156-.17-.39 0-.248.17-.391.17-.156.573-.156h1.81l-4.258-4.076-4.232 4.076h1.823q.39 0 .56.156.17.143.17.39 0 .235-.17.391-.17.156-.56.156h-3.555q-.39 0-.56-.156-.169-.156-.169-.39 0-.17.091-.313.104-.143.222-.182.13-.052.625-.052l5.013-4.805-4.454-4.27q-.468 0-.598-.053-.118-.052-.222-.195-.091-.144-.091-.313 0-.234.17-.39.169-.157.572-.157h2.982q.404 0 .56.157.17.156.17.403 0 .235-.17.39-.156.157-.56.157h-1.302L38.58 8.62l3.71-3.555H40.99q-.391 0-.573-.156-.17-.156-.17-.404 0-.234.17-.39.169-.157.573-.157h2.981q.391 0 .56.157.17.156.17.403 0 .156-.105.3-.09.143-.22.195-.118.052-.587.052zM52.318 3.958h5.937q.39 0 .56.157.17.156.17.403 0 .235-.17.39-.17.157-.56.157h-5.937v7.279q0 .95.755 1.588.768.638 2.24.638 1.106 0 2.395-.325 1.29-.339 2.006-.755.26-.17.43-.17.208 0 .364.17.156.156.156.377 0 .196-.17.365-.416.43-2.03.937-1.602.495-3.073.495-1.914 0-3.047-.898-1.133-.899-1.133-2.422V5.065h-2.018q-.39 0-.56-.156-.17-.156-.17-.404 0-.234.17-.39.17-.157.56-.157h2.018V.73q0-.39.156-.56.157-.169.39-.169.248 0 .405.17.156.169.156.56z"/></g><g style="line-height:1.25;-inkscape-font-specification:'monospace, Normal'" aria-label="head" font-size="16.933" font-family="monospace" stroke-width=".265"><path d="M31.125 149.825v4.274q.662-.719 1.265-1.008.612-.298 1.365-.298.81 0 1.372.29.57.28.951.876.38.587.38 1.24v4.308h.778q.256 0 .355.1.108.09.108.247 0 .149-.108.248-.099.1-.355.1h-2.258q-.256 0-.363-.1-.108-.099-.108-.248 0-.157.108-.248.107-.1.363-.1h.778v-4.257q0-.753-.546-1.257-.538-.504-1.505-.504-.76 0-1.298.372-.389.264-1.282 1.248v4.399h.786q.248 0 .355.1.108.09.108.247 0 .149-.108.248-.107.1-.355.1h-2.266q-.248 0-.355-.1-.108-.099-.108-.248 0-.157.108-.248.107-.1.355-.1h.786v-8.978h-.934q-.248 0-.356-.1-.107-.099-.107-.256 0-.149.107-.248.108-.1.356-.1zM47.323 156.787h-7.078q.182 1.347 1.125 2.174.95.819 2.348.819.777 0 1.629-.257.851-.256 1.389-.678.157-.124.273-.124.132 0 .231.108.1.1.1.24 0 .14-.133.272-.397.414-1.414.778-1.008.355-2.075.355-1.786 0-2.985-1.166-1.19-1.174-1.19-2.836 0-1.513 1.116-2.596 1.124-1.083 2.778-1.083 1.703 0 2.803 1.116 1.1 1.108 1.083 2.878zm-.703-.703q-.207-1.15-1.091-1.869-.877-.72-2.092-.72-1.216 0-2.092.712-.876.711-1.091 1.877zM55.715 160.201v-1q-1.513 1.273-3.233 1.273-1.248 0-1.951-.628-.703-.637-.703-1.555 0-1.008.926-1.76.926-.753 2.704-.753.48 0 1.042.066.562.058 1.215.19v-1.124q0-.57-.53-.993-.528-.421-1.587-.421-.81 0-2.273.471-.265.083-.34.083-.132 0-.23-.1-.092-.099-.092-.247 0-.141.083-.224.116-.124.934-.339 1.29-.347 1.952-.347 1.314 0 2.05.653.736.645.736 1.464v4.597h.926q.256 0 .364.099.107.091.107.248 0 .149-.107.248-.108.1-.364.1zm0-3.456q-.488-.14-1.033-.206-.546-.067-1.15-.067-1.513 0-2.364.654-.645.487-.645 1.165 0 .629.487 1.059.497.43 1.44.43.9 0 1.67-.356.777-.364 1.595-1.15zM67.274 149.825v9.682h.926q.256 0 .364.1.107.09.107.247 0 .149-.107.248-.108.1-.364.1h-1.629v-1.381q-1.207 1.653-3.067 1.653-.943 0-1.811-.496-.86-.504-1.364-1.43-.496-.926-.496-1.91 0-.992.496-1.91.504-.926 1.364-1.43.868-.505 1.819-.505 1.819 0 3.06 1.654v-3.92h-.927q-.256 0-.364-.099-.107-.099-.107-.256 0-.149.107-.248.108-.1.364-.1zm-.703 6.813q0-1.323-.893-2.233-.893-.91-2.125-.91-1.24 0-2.133.91t-.893 2.233q0 1.314.893 2.232.893.91 2.133.91 1.232 0 2.125-.91.893-.918.893-2.232z"/></g><path d="M54.501 142.343c40.84-45.517 47.387-2.806 47.387-2.806" fill="none" stroke="#000" stroke-width=".444"/><g style="line-height:1.25;-inkscape-font-specification:'monospace, Normal'" aria-label="null" font-size="16.933" font-family="monospace" stroke-width=".265"><path d="M311.92 153.041v1.05q.728-.736 1.315-1.017.587-.28 1.323-.28.794 0 1.447.338.463.248.835.827.38.57.38 1.174v4.374h.587q.249 0 .356.1.108.09.108.247 0 .149-.108.248-.107.1-.356.1h-1.86q-.256 0-.364-.1-.107-.099-.107-.248 0-.157.107-.248.108-.1.364-.1h.579v-4.257q0-.736-.538-1.24-.537-.513-1.438-.513-.686 0-1.19.281-.505.273-1.44 1.373v4.357h.786q.248 0 .356.1.107.09.107.247 0 .149-.107.248-.108.1-.356.1h-2.265q-.249 0-.356-.1-.108-.099-.108-.248 0-.157.108-.248.107-.1.356-.1h.785v-5.762h-.587q-.248 0-.356-.1-.107-.098-.107-.256 0-.148.107-.248.108-.099.356-.099zM326.696 160.201v-1.017q-1.422 1.29-3.076 1.29-1.017 0-1.546-.554-.686-.727-.686-1.695v-4.481h-.935q-.248 0-.355-.1-.108-.098-.108-.256 0-.148.108-.248.107-.099.355-.099h1.63v5.184q0 .678.43 1.117.43.438 1.074.438 1.695 0 3.109-1.555v-4.481h-1.282q-.248 0-.355-.1-.108-.098-.108-.256 0-.148.108-.248.107-.099.355-.099h1.976v6.466h.587q.248 0 .356.1.107.09.107.247 0 .149-.107.248-.108.1-.356.1zM334.823 149.825v9.682h2.729q.256 0 .364.1.107.09.107.247 0 .149-.107.248-.108.1-.364.1H331.4q-.248 0-.355-.1-.108-.099-.108-.248 0-.157.108-.248.107-.1.355-.1h2.729v-8.978h-2.001q-.248 0-.364-.1-.107-.099-.107-.256 0-.149.107-.248.108-.1.364-.1zM344.977 149.825v9.682h2.728q.257 0 .364.1.108.09.108.247 0 .149-.108.248-.107.1-.364.1h-6.151q-.248 0-.356-.1-.107-.099-.107-.248 0-.157.107-.248.108-.1.356-.1h2.728v-8.978h-2q-.249 0-.364-.1-.108-.099-.108-.256 0-.149.108-.248.107-.1.363-.1z"/></g><path d="M277.43 173.673c56.621 31.088 54.24 2.248 54.24 2.248" fill="none" stroke="#000" stroke-width=".444"/><path d="M101.94 141.208l-3.18-3.42-3.18-3.418 4.551-1.045 4.551-1.045-1.37 4.464z" opacity=".997"/><path transform="matrix(.9268 -.65854 .65854 .9268 145.363 114.174)" d="M103.74 143.902l-3.28-2.472-3.279-2.472 3.781-1.604 3.78-1.604-.5 4.076z" opacity=".997" filter="url(#a)"/></g></svg>