<svg xmlns="http://www.w3.org/2000/svg" width="1440" height="1080" viewBox="0 0 381 285.75" xmlns:v="https://vecta.io/nano"><g transform="matrix(1.221692 0 0 1.221692 -29.804002 -25.316659)"><path d="M111.925 91.857h59.334v12.294h-59.334zm39.688 52.736h59.334v12.294h-59.334zm-39.688-77.647h59.334V79.24h-59.334zm0 50.831h59.334v12.294h-59.334zm79.975-25.92h59.334v12.294H191.9zm0-24.911h59.334V79.24H191.9zm0 50.831h59.334v12.294H191.9zm-40.287 49.229h59.334V179.3h-59.334zm0 22.664h59.334v12.294h-59.334z" opacity=".999" fill-opacity="0" fill="#fff" stroke="#00000b" stroke-width="1.6"/><text xml:space="preserve" x="106.022" y="59.909" font-size="16.933" font-family="monospace"><tspan x="106.022" y="59.909">Input 1</tspan></text><text xml:space="preserve" x="187.476" y="59.72" font-size="16.933" font-family="monospace"><tspan x="187.476" y="59.72">Input 2</tspan></text><text xml:space="preserve" x="151.275" y="219.161" font-size="16.933" font-family="monospace"><tspan x="151.275" y="219.161">Output</tspan></text></g></svg>