<svg xmlns="http://www.w3.org/2000/svg" width="1440" height="1080" viewBox="0 0 381 285.75" xmlns:v="https://vecta.io/nano"><style><![CDATA[.B{font-family:monospace}.C{font-weight:400}.D{font-size:16.933px}.E{opacity:.999}.F{stroke:#000}.G{font-size:7.508px}.H{stroke-width:2.646}.I{stroke-width:1.449}]]></style><g transform="matrix(1.110669 0 0 1.110669 -30.673407 -10.182543)"><g stroke="#00c800" class="I"><path d="M56.978 148.075l10.615 28.367" fill="none"/><path d="M64.664 142.218l43.191 10.981"/><path d="M89.92 121.172l-25.988 13.177m77.689-7.778l-19.948 22.968" fill="none"/></g><g transform="matrix(.684748 0 0 .684748 -4.331388 59.679803)"><circle cx="149.679" cy="81.643" r="13.229" fill="#fff" class="E F H"/><text xml:space="preserve" x="144.602" y="86.901" class="B D"><tspan x="144.602" y="86.901">1</tspan></text></g><g transform="matrix(.684748 0 0 .684748 -129.51169 68.830409)"><circle r="13.229" cy="102.81" cx="269.875" fill="#fff" class="E F H"/><text xml:space="preserve" x="265.104" y="108.122" class="B D"><tspan x="265.104" y="108.122">2</tspan></text></g><g transform="matrix(.684748 0 0 .684748 -96.569509 90.791867)"><circle r="13.229" cy="137.583" cx="244.929" fill="#fff" class="E F H"/><text xml:space="preserve" x="239.885" y="142.772" class="B D"><tspan x="239.885" y="142.772">3</tspan></text></g><g transform="matrix(.684748 0 0 .684748 -15.312117 54.555461)"><circle r="13.229" cy="149.679" cx="192.012" fill="#fff" class="E F H"/><text xml:space="preserve" x="187.063" y="154.867" class="B D"><tspan x="187.063" y="154.867">4</tspan></text></g><g transform="matrix(.684748 0 0 .684748 33.735138 -12.060961)"><circle r="13.229" cy="191.634" cx="166.688" fill="#fff" class="E F H"/><text xml:space="preserve" x="161.64" y="196.698" class="B D"><tspan x="161.64" y="196.698">5</tspan></text></g><g fill="none" class="F"><path d="M106.738 116.149l31.7 2.908" class="I"/><path d="M63.932 134.349z" stroke-width=".181"/><path d="M110.417 164.729l-30.38 16.654" class="I"/></g><text y="125.452" x="73.534" xml:space="preserve" class="B G"><tspan y="125.452" x="73.534" font-weight="normal">3</tspan></text><text xml:space="preserve" x="56.65" y="168.921" class="B G"><tspan x="56.65" y="168.921" font-weight="normal">5</tspan></text><text xml:space="preserve" x="87.083" y="143.466" class="B G"><tspan x="87.083" y="143.466" font-weight="normal">2</tspan></text><text xml:space="preserve" x="96.611" y="179.871" class="B G"><tspan x="96.611" y="179.871" font-weight="normal">8</tspan></text><text xml:space="preserve" x="121.639" y="115.735" class="B G"><tspan x="121.639" y="115.735" font-weight="normal">7</tspan></text><text xml:space="preserve" x="133.585" y="143.751" class="B G"><tspan x="133.585" y="143.751" font-weight="normal">4</tspan></text><text xml:space="preserve" x="177.649" y="94.872" class="B D"><tspan x="177.649" y="94.872">Nodes:</tspan><tspan x="177.649" y="116.039">1</tspan><tspan x="177.649" y="137.205">2</tspan><tspan x="177.649" y="158.372">3</tspan><tspan x="177.649" y="179.539">4</tspan><tspan x="177.649" y="200.705">5</tspan></text><text xml:space="preserve" x="260.72" y="73.7" class="B D"><tspan x="260.72" y="73.7">Cheaptest</tspan><tspan x="260.72" y="94.867">edge:</tspan><tspan x="260.72" y="116.033">3</tspan><tspan x="260.72" y="137.2">2</tspan><tspan x="260.72" y="158.366">5</tspan><tspan x="260.72" y="179.533">4</tspan><tspan x="260.72" y="200.7">4</tspan></text><path d="M257.175 162.773h17.64v44.099h-17.64z" fill="none" stroke="red" stroke-width="2.117" class="E"/><text xml:space="preserve" x="278.834" y="185.936" font-size="7.056" class="B"><tspan x="278.834" y="185.936" font-weight="normal">Repeat, count once</tspan></text></g></svg>