<svg xmlns="http://www.w3.org/2000/svg" xmlns:xlink="http://www.w3.org/1999/xlink" width="1440" height="1080" viewBox="0 0 381 285.75" xmlns:v="https://vecta.io/nano"><style><![CDATA[.B{opacity:.999}.C{fill-opacity:0}.D{font-family:monospace}.E{stroke-width:.782}]]></style><g fill="#fff" stroke="#00000b" class="E C"><use xlink:href="#B" class="B"/><use xlink:href="#B" y="11.977" class="B"/><path d="M237.1 34.161h28.985v6.006H237.1zm0 11.977h28.985v6.006H237.1z" class="B"/></g><text xml:space="preserve" x="102.516" y="29.571" font-size="14.48" class="D"><tspan x="102.516" y="29.571">Input 1</tspan></text><text xml:space="preserve" x="220.911" y="29.567" font-size="14.48" class="D"><tspan x="220.911" y="29.567">Input 2</tspan></text><g stroke="#00000b" fill="#fff" class="E C"><path transform="rotate(332.345)" d="M71.996 116.547h28.985v6.006H71.996z" class="B"/><path transform="rotate(24.827)" d="M240.86-48.562h28.985v6.006H240.86z" class="B"/><g transform="rotate(90)"><use xlink:href="#C" class="B"/><use xlink:href="#C" y="13.471" class="B"/><use xlink:href="#C" y="26.759" class="B"/><use xlink:href="#C" y="40.253" class="B"/><use xlink:href="#C" y="53.505" class="B"/><use xlink:href="#C" y="109.266" class="B"/><use xlink:href="#C" y="67.181" class="B"/><use xlink:href="#C" y="95.627" class="B"/><use xlink:href="#C" y="81.794" class="B"/><use xlink:href="#C" y="-123.793" class="B"/><use xlink:href="#C" y="-110.322" class="B"/><use xlink:href="#C" y="-97.034" class="B"/><use xlink:href="#C" y="-83.54" class="B"/><use xlink:href="#C" y="-70.289" class="B"/><use xlink:href="#C" y="-14.528" class="B"/><use xlink:href="#C" y="-56.613" class="B"/><use xlink:href="#C" y="-28.166" class="B"/><use xlink:href="#C" y="-42" class="B"/></g><path transform="rotate(64.119)" d="M102.215-17.303H131.2v6.006h-28.985z" class="B"/><path transform="rotate(17.481)" d="M64.025 89.06H93.01v6.006H64.025z" class="B"/><path d="M31.876 125.934h28.985v6.006H31.876zm0 11.225h28.985v6.006H31.876zm0 10.892h28.985v6.006H31.876zm0 11.726h28.985v6.006H31.876zm0 11.225h28.985v6.006H31.876z" class="B"/><use xlink:href="#B" x="-244.957" y="-365.596" transform="rotate(125.257)" class="B"/><use xlink:href="#B" x="171.202" y="160.553" transform="rotate(345.271)" class="B"/><use xlink:href="#B" x="211.007" y="91.773" class="B"/><use xlink:href="#B" x="211.007" y="102.998" class="B"/><use xlink:href="#B" x="211.007" y="113.89" class="B"/><use xlink:href="#B" x="211.007" y="125.616" class="B"/><use xlink:href="#B" x="211.007" y="136.841" class="B"/><use xlink:href="#B" x="-231.012" y="136.044" transform="rotate(317.614)" class="B"/><use xlink:href="#B" x="-338.027" y="27.055" transform="rotate(270.975)" class="B"/><use xlink:href="#B" x="-501.759" y="101.301" transform="rotate(230.257)" class="B"/><use xlink:href="#B" x="73.233" y="-363.24" transform="rotate(90.271)" class="B"/><g transform="rotate(90)"><use xlink:href="#B" x="74.639" y="-196.816" class="B"/><use xlink:href="#B" x="74.639" y="-183.322" class="B"/><use xlink:href="#B" x="74.639" y="-170.071" class="B"/><use xlink:href="#B" x="74.639" y="-114.309" class="B"/><use xlink:href="#B" x="74.639" y="-156.394" class="B"/><use xlink:href="#B" x="74.639" y="-127.948" class="B"/><use xlink:href="#B" x="74.639" y="-141.781" class="B"/><use xlink:href="#B" x="74.639" y="-347.369" class="B"/><use xlink:href="#B" x="74.639" y="-333.898" class="B"/><use xlink:href="#B" x="74.639" y="-320.609" class="B"/><use xlink:href="#B" x="74.639" y="-307.116" class="B"/><use xlink:href="#B" x="74.639" y="-293.864" class="B"/><use xlink:href="#B" x="74.639" y="-280.188" class="B"/><use xlink:href="#B" x="74.639" y="-265.575" class="B"/></g><path transform="rotate(317.614)" d="M-21.227 272.612H7.758v6.006h-28.985z" class="B"/><use xlink:href="#B" x="-427.162" y="-9.286" transform="rotate(230.257)" class="B"/><use xlink:href="#B" x="62.459" y="184.935" class="B"/><use xlink:href="#B" x="62.459" y="196.35" class="B"/><use xlink:href="#B" x="62.459" y="207.859" class="B"/><use xlink:href="#B" x="62.459" y="219.274" class="B"/></g><text y="274.854" x="165.327" xml:space="preserve" font-size="16.933" class="D"><tspan y="274.854" x="165.327">Output</tspan></text><defs ><path id="B" d="M117.849 34.161h28.985v6.006h-28.985z"/><path id="C" d="M83.443-191.825h28.985v6.006H83.443z"/></defs></svg>